<svg width="64" height="59" viewBox="0 0 64 59" fill="none" xmlns="http://www.w3.org/2000/svg">
<rect x="0.551025" y="8.94177" width="49.5493" height="49.5493" rx="3.5647" fill="#66C2CC"/>
<path d="M43.2005 40.6133L9.66411 52.9807C8.26839 53.4954 6.92942 52.1 7.50128 50.7267L21.277 17.6451C21.6056 16.8559 22.4755 16.4406 23.2957 16.6812C32.7427 19.4523 40.243 26.6591 43.3888 35.988L44.2257 38.4699C44.5205 39.3441 44.0661 40.2941 43.2005 40.6133Z" fill="#E3F8FF"/>
<mask id="mask0_278_7939" style="mask-type:alpha" maskUnits="userSpaceOnUse" x="7" y="16" width="38" height="37">
<path d="M43.2005 40.6133L10.7345 52.5859C8.93107 53.251 7.20093 51.4479 7.93985 49.6735L21.277 17.6451C21.6056 16.8559 22.4755 16.4406 23.2957 16.6812C32.7427 19.4523 40.243 26.6591 43.3888 35.988L44.2257 38.4699C44.5205 39.3441 44.0661 40.2941 43.2005 40.6133Z" fill="#1D6AE5"/>
</mask>
<g mask="url(#mask0_278_7939)">
<path d="M28.2403 54.1327L27.501 56.4393C28.3519 56.712 29.2839 56.4941 29.9257 55.8724L28.2403 54.1327ZM21.1586 54.4065L27.501 56.4393L28.9796 51.826L22.6372 49.7932L21.1586 54.4065ZM17.4288 26.8392L16.6685 24.5293L12.0669 26.0437L12.8272 28.3536L17.4288 26.8392ZM29.9257 55.8724L36.9721 49.0462L33.6014 45.5668L26.555 52.3929L29.9257 55.8724ZM35.992 44.9892C27.2199 42.3195 20.2952 35.5489 17.4288 26.8392L12.8272 28.3536C16.1864 38.5606 24.3015 46.495 34.5815 49.6237L35.992 44.9892ZM5.85789 38.2272C7.8491 45.8857 13.6231 51.9912 21.1586 54.4065L22.6372 49.7932C16.6826 47.8847 12.1199 43.06 10.5464 37.0082L5.85789 38.2272Z" fill="#377982"/>
</g>
<ellipse cx="33.1881" cy="28.0926" rx="6.37791" ry="16.2471" transform="rotate(-42.9444 33.1881 28.0926)" fill="#000B50"/>
<path d="M55.2944 38.8993L58.7581 35.4355L62.2219 38.8993L58.7581 42.363L55.2944 38.8993Z" fill="#FFC729"/>
<path d="M37.7643 31.9486L36.5374 32.0642L36.7684 34.518L37.9954 34.4025L37.7643 31.9486ZM58.2646 27.02L59.4468 27.3681L60.143 25.0037L58.9608 24.6556L58.2646 27.02ZM55.3027 24.8631L54.9546 26.0453L55.3027 24.8631ZM54.9546 26.0453L58.2646 27.02L58.9608 24.6556L55.6508 23.681L54.9546 26.0453ZM37.9954 34.4025L42.6484 33.9644L42.4173 31.5105L37.7643 31.9486L37.9954 34.4025ZM42.6484 33.9644C45.5024 33.6956 47.9445 31.8029 48.9168 29.1063L46.5981 28.2703C45.9497 30.0689 44.3208 31.3313 42.4173 31.5105L42.6484 33.9644ZM55.6508 23.681C51.8943 22.5748 47.9263 24.5864 46.5981 28.2703L48.9168 29.1063C49.8026 26.6492 52.4492 25.3076 54.9546 26.0453L55.6508 23.681Z" fill="#1D6AE5"/>
<circle cx="22.5709" cy="2.71179" r="1.78235" fill="#1D6AE5"/>
<path d="M34.358 22.0163L35.804 19.3433C36.9542 17.2171 36.6082 14.5925 34.9462 12.8371V12.8371C32.9283 10.7058 32.9012 7.37718 34.8842 5.21333L37.3042 2.57257" stroke="#F9692A" stroke-width="2.46472" stroke-linecap="square" stroke-linejoin="round"/>
<path d="M57.3885 2.57263H57.3179C57.1563 4.14498 56.4584 5.6136 55.3417 6.73129C54.225 7.84898 52.7577 8.54748 51.1868 8.70923V8.7821C52.7562 8.94389 54.2223 9.64126 55.3387 10.7571C56.4551 11.8729 57.154 13.3393 57.3179 14.9099H57.3907C57.5547 13.3389 58.2539 11.8723 59.3707 10.7564C60.4876 9.64057 61.9542 8.94342 63.524 8.7821V8.70923C61.9521 8.54884 60.4836 7.85088 59.3659 6.73303C58.2482 5.61518 57.5499 4.14581 57.3885 2.57263V2.57263Z" fill="#FFC729"/>
</svg>
